<?xml version="1.0" encoding="UTF-8" standalone="no"?>
<svg
   width="460.8pt"
   height="345.6pt"
   viewBox="0 0 460.8 345.6"
   version="1.1"
   id="svg96"
   sodipodi:docname="Figure_1a.svg"
   inkscape:version="1.3.1 (91b66b0783, 2023-11-16)"
   xmlns:inkscape="http://www.inkscape.org/namespaces/inkscape"
   xmlns:sodipodi="http://sodipodi.sourceforge.net/DTD/sodipodi-0.dtd"
   xmlns:xlink="http://www.w3.org/1999/xlink"
   xmlns="http://www.w3.org/2000/svg"
   xmlns:svg="http://www.w3.org/2000/svg"
   xmlns:rdf="http://www.w3.org/1999/02/22-rdf-syntax-ns#"
   xmlns:cc="http://creativecommons.org/ns#"
   xmlns:dc="http://purl.org/dc/elements/1.1/">
  <sodipodi:namedview
     id="namedview96"
     pagecolor="#ffffff"
     bordercolor="#000000"
     borderopacity="0.25"
     inkscape:showpageshadow="2"
     inkscape:pageopacity="0.0"
     inkscape:pagecheckerboard="0"
     inkscape:deskcolor="#d1d1d1"
     inkscape:document-units="pt"
     inkscape:zoom="1.7643229"
     inkscape:cx="306.91661"
     inkscape:cy="230.4"
     inkscape:window-width="1920"
     inkscape:window-height="1009"
     inkscape:window-x="1912"
     inkscape:window-y="-8"
     inkscape:window-maximized="1"
     inkscape:current-layer="svg96" />
  <metadata
     id="metadata1">
    <rdf:RDF>
      <cc:Work>
        <dc:type
           rdf:resource="http://purl.org/dc/dcmitype/StillImage" />
        <dc:date>2023-11-26T13:04:43.239192</dc:date>
        <dc:format>image/svg+xml</dc:format>
        <dc:creator>
          <cc:Agent>
            <dc:title>Matplotlib v3.5.1, https://matplotlib.org/</dc:title>
          </cc:Agent>
        </dc:creator>
      </cc:Work>
    </rdf:RDF>
  </metadata>
  <defs
     id="defs1">
    <style
       type="text/css"
       id="style1">*{stroke-linejoin: round; stroke-linecap: butt}</style>
  </defs>
  <g
     id="figure_1">
    <g
       id="patch_1">
      <path
         d="M 0 345.6  L 460.8 345.6  L 460.8 0  L 0 0  z "
         style="fill: #ffffff"
         id="path1" />
    </g>
    <g
       id="axes_1">
      <g
         id="patch_2">
        <path
           d="M 57.6 119.740235  L 414.72 119.740235  L 414.72 41.472  L 57.6 41.472  z "
           style="fill: #ffffff"
           id="path2" />
      </g>
      <g
         id="matplotlib.axis_1">
        <g
           id="xtick_1">
          <g
             id="line2d_1">
            <defs
               id="defs2">
              <path
                 id="m4f6a51facf"
                 d="M 0 0  L 0 3.5  "
                 style="stroke: #000000; stroke-width: 0.8" />
            </defs>
            <g
               id="g2">
              <use
                 xlink:href="#m4f6a51facf"
                 x="57.6"
                 y="80.606118"
                 style="stroke: #000000; stroke-width: 0.8"
                 id="use2" />
            </g>
          </g>
          <g
             id="text_1">
            <!-- 0 -->
            <g
               transform="translate(54.41875 95.204555)scale(0.1 -0.1)"
               id="g3">
              <defs
                 id="defs3">
                <path
                   id="DejaVuSans-30"
                   d="M 2034 4250  Q 1547 4250 1301 3770  Q 1056 3291 1056 2328  Q 1056 1369 1301 889  Q 1547 409 2034 409  Q 2525 409 2770 889  Q 3016 1369 3016 2328  Q 3016 3291 2770 3770  Q 2525 4250 2034 4250  z M 2034 4750  Q 2819 4750 3233 4129  Q 3647 3509 3647 2328  Q 3647 1150 3233 529  Q 2819 -91 2034 -91  Q 1250 -91 836 529  Q 422 1150 422 2328  Q 422 3509 836 4129  Q 1250 4750 2034 4750  z "
                   transform="scale(0.015625)" />
              </defs>
              <use
                 xlink:href="#DejaVuSans-30"
                 id="use3" />
            </g>
          </g>
        </g>
        <g
           id="xtick_2">
          <g
             id="line2d_2">
            <g
               id="g4">
              <use
                 xlink:href="#m4f6a51facf"
                 x="414.72"
                 y="80.606118"
                 style="stroke: #000000; stroke-width: 0.8"
                 id="use4" />
            </g>
          </g>
          <g
             id="text_2">
            <!-- 20 -->
            <g
               transform="translate(408.3575 95.204555)scale(0.1 -0.1)"
               id="g6">
              <defs
                 id="defs4">
                <path
                   id="DejaVuSans-32"
                   d="M 1228 531  L 3431 531  L 3431 0  L 469 0  L 469 531  Q 828 903 1448 1529  Q 2069 2156 2228 2338  Q 2531 2678 2651 2914  Q 2772 3150 2772 3378  Q 2772 3750 2511 3984  Q 2250 4219 1831 4219  Q 1534 4219 1204 4116  Q 875 4013 500 3803  L 500 4441  Q 881 4594 1212 4672  Q 1544 4750 1819 4750  Q 2544 4750 2975 4387  Q 3406 4025 3406 3419  Q 3406 3131 3298 2873  Q 3191 2616 2906 2266  Q 2828 2175 2409 1742  Q 1991 1309 1228 531  z "
                   transform="scale(0.015625)" />
              </defs>
              <use
                 xlink:href="#DejaVuSans-32"
                 id="use5" />
              <use
                 xlink:href="#DejaVuSans-30"
                 x="63.623047"
                 id="use6" />
            </g>
          </g>
        </g>
      </g>
      <g
         id="line2d_3">
        <defs
           id="defs6">
          <path
             id="m4e34d712ee"
             d="M 0 3  L 0 -3  "
             style="stroke: #ff0000" />
        </defs>
        <g
           clip-path="url(#p64418d3b89)"
           id="g9">
          <use
             xlink:href="#m4e34d712ee"
             x="111.168"
             y="80.606118"
             style="fill: #ff0000; stroke: #ff0000"
             id="use7" />
          <use
             xlink:href="#m4e34d712ee"
             x="236.16"
             y="80.606118"
             style="fill: #ff0000; stroke: #ff0000"
             id="use8" />
          <use
             xlink:href="#m4e34d712ee"
             x="361.152"
             y="80.606118"
             style="fill: #ff0000; stroke: #ff0000"
             id="use9" />
        </g>
      </g>
      <g
         id="patch_3">
        <path
           d="M 57.6 119.740235  L 57.6 41.472  "
           style="fill: none"
           id="path9" />
      </g>
      <g
         id="patch_4">
        <path
           d="M 414.72 119.740235  L 414.72 41.472  "
           style="fill: none"
           id="path10" />
      </g>
      <g
         id="patch_5">
        <path
           d="M 57.6 80.606118  L 414.72 80.606118  "
           style="fill: none; stroke: #000000; stroke-width: 0.8; stroke-linejoin: miter; stroke-linecap: square"
           id="path11" />
      </g>
      <g
         id="patch_6">
        <path
           d="M 57.6 41.472  L 414.72 41.472  "
           style="fill: none"
           id="path12" />
      </g>
      <g
         id="text_3">
        <!-- 3 -->
        <g
           style="fill: #ff0000"
           transform="translate(108.4896 94.6944)scale(0.1 -0.1)"
           id="g12">
          <defs
             id="defs12">
            <path
               id="DejaVuSans-33"
               d="M 2597 2516  Q 3050 2419 3304 2112  Q 3559 1806 3559 1356  Q 3559 666 3084 287  Q 2609 -91 1734 -91  Q 1441 -91 1130 -33  Q 819 25 488 141  L 488 750  Q 750 597 1062 519  Q 1375 441 1716 441  Q 2309 441 2620 675  Q 2931 909 2931 1356  Q 2931 1769 2642 2001  Q 2353 2234 1838 2234  L 1294 2234  L 1294 2753  L 1863 2753  Q 2328 2753 2575 2939  Q 2822 3125 2822 3475  Q 2822 3834 2567 4026  Q 2313 4219 1838 4219  Q 1578 4219 1281 4162  Q 984 4106 628 3988  L 628 4550  Q 988 4650 1302 4700  Q 1616 4750 1894 4750  Q 2613 4750 3031 4423  Q 3450 4097 3450 3541  Q 3450 3153 3228 2886  Q 3006 2619 2597 2516  z "
               transform="scale(0.015625)" />
          </defs>
          <use
             xlink:href="#DejaVuSans-33"
             id="use12" />
        </g>
      </g>
      <g
         id="text_4">
        <!-- 10 -->
        <g
           style="fill: #ff0000"
           transform="translate(230.8032 94.6944)scale(0.1 -0.1)"
           id="g14">
          <defs
             id="defs13">
            <path
               id="DejaVuSans-31"
               d="M 794 531  L 1825 531  L 1825 4091  L 703 3866  L 703 4441  L 1819 4666  L 2450 4666  L 2450 531  L 3481 531  L 3481 0  L 794 0  L 794 531  z "
               transform="scale(0.015625)" />
          </defs>
          <use
             xlink:href="#DejaVuSans-31"
             id="use13" />
          <use
             xlink:href="#DejaVuSans-30"
             x="63.623047"
             id="use14" />
        </g>
      </g>
      <g
         id="text_5">
        <!-- 17 -->
        <g
           style="fill: #ff0000"
           transform="translate(355.7952 94.6944)scale(0.1 -0.1)"
           id="g16">
          <defs
             id="defs14">
            <path
               id="DejaVuSans-37"
               d="M 525 4666  L 3525 4666  L 3525 4397  L 1831 0  L 1172 0  L 2766 4134  L 525 4134  L 525 4666  z "
               transform="scale(0.015625)" />
          </defs>
          <use
             xlink:href="#DejaVuSans-31"
             id="use15" />
          <use
             xlink:href="#DejaVuSans-37"
             x="63.623047"
             id="use16" />
        </g>
      </g>
      <g
         id="text_6">
        <!-- maxDepth -->
        <g
           transform="translate(57.6 35.472)scale(0.1 -0.1)"
           id="g24">
          <defs
             id="defs16">
            <path
               id="ArialMT-6d"
               d="M 422 0  L 422 3319  L 925 3319  L 925 2853  Q 1081 3097 1340 3245  Q 1600 3394 1931 3394  Q 2300 3394 2536 3241  Q 2772 3088 2869 2813  Q 3263 3394 3894 3394  Q 4388 3394 4653 3120  Q 4919 2847 4919 2278  L 4919 0  L 4359 0  L 4359 2091  Q 4359 2428 4304 2576  Q 4250 2725 4106 2815  Q 3963 2906 3769 2906  Q 3419 2906 3187 2673  Q 2956 2441 2956 1928  L 2956 0  L 2394 0  L 2394 2156  Q 2394 2531 2256 2718  Q 2119 2906 1806 2906  Q 1569 2906 1367 2781  Q 1166 2656 1075 2415  Q 984 2175 984 1722  L 984 0  L 422 0  z "
               transform="scale(0.015625)" />
            <path
               id="ArialMT-61"
               d="M 2588 409  Q 2275 144 1986 34  Q 1697 -75 1366 -75  Q 819 -75 525 192  Q 231 459 231 875  Q 231 1119 342 1320  Q 453 1522 633 1644  Q 813 1766 1038 1828  Q 1203 1872 1538 1913  Q 2219 1994 2541 2106  Q 2544 2222 2544 2253  Q 2544 2597 2384 2738  Q 2169 2928 1744 2928  Q 1347 2928 1158 2789  Q 969 2650 878 2297  L 328 2372  Q 403 2725 575 2942  Q 747 3159 1072 3276  Q 1397 3394 1825 3394  Q 2250 3394 2515 3294  Q 2781 3194 2906 3042  Q 3031 2891 3081 2659  Q 3109 2516 3109 2141  L 3109 1391  Q 3109 606 3145 398  Q 3181 191 3288 0  L 2700 0  Q 2613 175 2588 409  z M 2541 1666  Q 2234 1541 1622 1453  Q 1275 1403 1131 1340  Q 988 1278 909 1158  Q 831 1038 831 891  Q 831 666 1001 516  Q 1172 366 1500 366  Q 1825 366 2078 508  Q 2331 650 2450 897  Q 2541 1088 2541 1459  L 2541 1666  z "
               transform="scale(0.015625)" />
            <path
               id="ArialMT-78"
               d="M 47 0  L 1259 1725  L 138 3319  L 841 3319  L 1350 2541  Q 1494 2319 1581 2169  Q 1719 2375 1834 2534  L 2394 3319  L 3066 3319  L 1919 1756  L 3153 0  L 2463 0  L 1781 1031  L 1600 1309  L 728 0  L 47 0  z "
               transform="scale(0.015625)" />
            <path
               id="ArialMT-44"
               d="M 494 0  L 494 4581  L 2072 4581  Q 2606 4581 2888 4516  Q 3281 4425 3559 4188  Q 3922 3881 4101 3404  Q 4281 2928 4281 2316  Q 4281 1794 4159 1391  Q 4038 988 3847 723  Q 3656 459 3429 307  Q 3203 156 2883 78  Q 2563 0 2147 0  L 494 0  z M 1100 541  L 2078 541  Q 2531 541 2789 625  Q 3047 709 3200 863  Q 3416 1078 3536 1442  Q 3656 1806 3656 2325  Q 3656 3044 3420 3430  Q 3184 3816 2847 3947  Q 2603 4041 2063 4041  L 1100 4041  L 1100 541  z "
               transform="scale(0.015625)" />
            <path
               id="ArialMT-65"
               d="M 2694 1069  L 3275 997  Q 3138 488 2766 206  Q 2394 -75 1816 -75  Q 1088 -75 661 373  Q 234 822 234 1631  Q 234 2469 665 2931  Q 1097 3394 1784 3394  Q 2450 3394 2872 2941  Q 3294 2488 3294 1666  Q 3294 1616 3291 1516  L 816 1516  Q 847 969 1125 678  Q 1403 388 1819 388  Q 2128 388 2347 550  Q 2566 713 2694 1069  z M 847 1978  L 2700 1978  Q 2663 2397 2488 2606  Q 2219 2931 1791 2931  Q 1403 2931 1139 2672  Q 875 2413 847 1978  z "
               transform="scale(0.015625)" />
            <path
               id="ArialMT-70"
               d="M 422 -1272  L 422 3319  L 934 3319  L 934 2888  Q 1116 3141 1344 3267  Q 1572 3394 1897 3394  Q 2322 3394 2647 3175  Q 2972 2956 3137 2557  Q 3303 2159 3303 1684  Q 3303 1175 3120 767  Q 2938 359 2589 142  Q 2241 -75 1856 -75  Q 1575 -75 1351 44  Q 1128 163 984 344  L 984 -1272  L 422 -1272  z M 931 1641  Q 931 1000 1190 694  Q 1450 388 1819 388  Q 2194 388 2461 705  Q 2728 1022 2728 1688  Q 2728 2322 2467 2637  Q 2206 2953 1844 2953  Q 1484 2953 1207 2617  Q 931 2281 931 1641  z "
               transform="scale(0.015625)" />
            <path
               id="ArialMT-74"
               d="M 1650 503  L 1731 6  Q 1494 -44 1306 -44  Q 1000 -44 831 53  Q 663 150 594 308  Q 525 466 525 972  L 525 2881  L 113 2881  L 113 3319  L 525 3319  L 525 4141  L 1084 4478  L 1084 3319  L 1650 3319  L 1650 2881  L 1084 2881  L 1084 941  Q 1084 700 1114 631  Q 1144 563 1211 522  Q 1278 481 1403 481  Q 1497 481 1650 503  z "
               transform="scale(0.015625)" />
            <path
               id="ArialMT-68"
               d="M 422 0  L 422 4581  L 984 4581  L 984 2938  Q 1378 3394 1978 3394  Q 2347 3394 2619 3248  Q 2891 3103 3008 2847  Q 3125 2591 3125 2103  L 3125 0  L 2563 0  L 2563 2103  Q 2563 2525 2380 2717  Q 2197 2909 1863 2909  Q 1613 2909 1392 2779  Q 1172 2650 1078 2428  Q 984 2206 984 1816  L 984 0  L 422 0  z "
               transform="scale(0.015625)" />
          </defs>
          <use
             xlink:href="#ArialMT-6d"
             id="use17" />
          <use
             xlink:href="#ArialMT-61"
             x="83.300781"
             id="use18" />
          <use
             xlink:href="#ArialMT-78"
             x="138.916016"
             id="use19" />
          <use
             xlink:href="#ArialMT-44"
             x="188.916016"
             id="use20" />
          <use
             xlink:href="#ArialMT-65"
             x="261.132812"
             id="use21" />
          <use
             xlink:href="#ArialMT-70"
             x="316.748047"
             id="use22" />
          <use
             xlink:href="#ArialMT-74"
             x="372.363281"
             id="use23" />
          <use
             xlink:href="#ArialMT-68"
             x="400.146484"
             id="use24" />
        </g>
      </g>
    </g>
    <g
       id="axes_2">
      <g
         id="patch_7">
        <path
           d="M 57.6 213.662118  L 414.72 213.662118  L 414.72 135.393882  L 57.6 135.393882  z "
           style="fill: #ffffff"
           id="path24" />
      </g>
      <g
         id="matplotlib.axis_2">
        <g
           id="xtick_3">
          <g
             id="line2d_4">
            <g
               id="g25">
              <use
                 xlink:href="#m4f6a51facf"
                 x="57.6"
                 y="174.528"
                 style="stroke: #000000; stroke-width: 0.8"
                 id="use25" />
            </g>
          </g>
          <g
             id="text_7">
            <!-- 0 -->
            <g
               transform="translate(54.41875 189.126437)scale(0.1 -0.1)"
               id="g26">
              <use
                 xlink:href="#DejaVuSans-30"
                 id="use26" />
            </g>
          </g>
        </g>
        <g
           id="xtick_4">
          <g
             id="line2d_5">
            <g
               id="g27">
              <use
                 xlink:href="#m4f6a51facf"
                 x="414.72"
                 y="174.528"
                 style="stroke: #000000; stroke-width: 0.8"
                 id="use27" />
            </g>
          </g>
          <g
             id="text_8">
            <!-- 250 -->
            <g
               transform="translate(405.17625 189.126437)scale(0.1 -0.1)"
               id="g30">
              <defs
                 id="defs27">
                <path
                   id="DejaVuSans-35"
                   d="M 691 4666  L 3169 4666  L 3169 4134  L 1269 4134  L 1269 2991  Q 1406 3038 1543 3061  Q 1681 3084 1819 3084  Q 2600 3084 3056 2656  Q 3513 2228 3513 1497  Q 3513 744 3044 326  Q 2575 -91 1722 -91  Q 1428 -91 1123 -41  Q 819 9 494 109  L 494 744  Q 775 591 1075 516  Q 1375 441 1709 441  Q 2250 441 2565 725  Q 2881 1009 2881 1497  Q 2881 1984 2565 2268  Q 2250 2553 1709 2553  Q 1456 2553 1204 2497  Q 953 2441 691 2322  L 691 4666  z "
                   transform="scale(0.015625)" />
              </defs>
              <use
                 xlink:href="#DejaVuSans-32"
                 id="use28" />
              <use
                 xlink:href="#DejaVuSans-35"
                 x="63.623047"
                 id="use29" />
              <use
                 xlink:href="#DejaVuSans-30"
                 x="127.246094"
                 id="use30" />
            </g>
          </g>
        </g>
      </g>
      <g
         id="line2d_6">
        <g
           clip-path="url(#pe850f5d3cf)"
           id="g33">
          <use
             xlink:href="#m4e34d712ee"
             x="111.88224"
             y="174.528"
             style="fill: #ff0000; stroke: #ff0000"
             id="use31" />
          <use
             xlink:href="#m4e34d712ee"
             x="200.448"
             y="174.528"
             style="fill: #ff0000; stroke: #ff0000"
             id="use32" />
          <use
             xlink:href="#m4e34d712ee"
             x="343.296"
             y="174.528"
             style="fill: #ff0000; stroke: #ff0000"
             id="use33" />
        </g>
      </g>
      <g
         id="patch_8">
        <path
           d="M 57.6 213.662118  L 57.6 135.393882  "
           style="fill: none"
           id="path33" />
      </g>
      <g
         id="patch_9">
        <path
           d="M 414.72 213.662118  L 414.72 135.393882  "
           style="fill: none"
           id="path34" />
      </g>
      <g
         id="patch_10">
        <path
           d="M 57.6 174.528  L 414.72 174.528  "
           style="fill: none; stroke: #000000; stroke-width: 0.8; stroke-linejoin: miter; stroke-linecap: square"
           id="path35" />
      </g>
      <g
         id="patch_11">
        <path
           d="M 57.6 135.393882  L 414.72 135.393882  "
           style="fill: none"
           id="path36" />
      </g>
      <g
         id="text_9">
        <!-- 38 -->
        <g
           style="fill: #ff0000"
           transform="translate(106.16832 188.616282)scale(0.1 -0.1)"
           id="g37">
          <defs
             id="defs36">
            <path
               id="DejaVuSans-38"
               d="M 2034 2216  Q 1584 2216 1326 1975  Q 1069 1734 1069 1313  Q 1069 891 1326 650  Q 1584 409 2034 409  Q 2484 409 2743 651  Q 3003 894 3003 1313  Q 3003 1734 2745 1975  Q 2488 2216 2034 2216  z M 1403 2484  Q 997 2584 770 2862  Q 544 3141 544 3541  Q 544 4100 942 4425  Q 1341 4750 2034 4750  Q 2731 4750 3128 4425  Q 3525 4100 3525 3541  Q 3525 3141 3298 2862  Q 3072 2584 2669 2484  Q 3125 2378 3379 2068  Q 3634 1759 3634 1313  Q 3634 634 3220 271  Q 2806 -91 2034 -91  Q 1263 -91 848 271  Q 434 634 434 1313  Q 434 1759 690 2068  Q 947 2378 1403 2484  z M 1172 3481  Q 1172 3119 1398 2916  Q 1625 2713 2034 2713  Q 2441 2713 2670 2916  Q 2900 3119 2900 3481  Q 2900 3844 2670 4047  Q 2441 4250 2034 4250  Q 1625 4250 1398 4047  Q 1172 3844 1172 3481  z "
               transform="scale(0.015625)" />
          </defs>
          <use
             xlink:href="#DejaVuSans-33"
             id="use36" />
          <use
             xlink:href="#DejaVuSans-38"
             x="63.623047"
             id="use37" />
        </g>
      </g>
      <g
         id="text_10">
        <!-- 100 -->
        <g
           style="fill: #ff0000"
           transform="translate(191.87712 188.616282)scale(0.1 -0.1)"
           id="g40">
          <use
             xlink:href="#DejaVuSans-31"
             id="use38" />
          <use
             xlink:href="#DejaVuSans-30"
             x="63.623047"
             id="use39" />
          <use
             xlink:href="#DejaVuSans-30"
             x="127.246094"
             id="use40" />
        </g>
      </g>
      <g
         id="text_11">
        <!-- 200 -->
        <g
           style="fill: #ff0000"
           transform="translate(334.72512 188.616282)scale(0.1 -0.1)"
           id="g43">
          <use
             xlink:href="#DejaVuSans-32"
             id="use41" />
          <use
             xlink:href="#DejaVuSans-30"
             x="63.623047"
             id="use42" />
          <use
             xlink:href="#DejaVuSans-30"
             x="127.246094"
             id="use43" />
        </g>
      </g>
      <g
         id="text_12">
        <!-- maxBins -->
        <g
           transform="translate(57.6 129.393882)scale(0.1 -0.1)"
           id="g50">
          <defs
             id="defs43">
            <path
               id="ArialMT-42"
               d="M 469 0  L 469 4581  L 2188 4581  Q 2713 4581 3030 4442  Q 3347 4303 3526 4014  Q 3706 3725 3706 3409  Q 3706 3116 3547 2856  Q 3388 2597 3066 2438  Q 3481 2316 3704 2022  Q 3928 1728 3928 1328  Q 3928 1006 3792 729  Q 3656 453 3456 303  Q 3256 153 2954 76  Q 2653 0 2216 0  L 469 0  z M 1075 2656  L 2066 2656  Q 2469 2656 2644 2709  Q 2875 2778 2992 2937  Q 3109 3097 3109 3338  Q 3109 3566 3000 3739  Q 2891 3913 2687 3977  Q 2484 4041 1991 4041  L 1075 4041  L 1075 2656  z M 1075 541  L 2216 541  Q 2509 541 2628 563  Q 2838 600 2978 687  Q 3119 775 3209 942  Q 3300 1109 3300 1328  Q 3300 1584 3169 1773  Q 3038 1963 2805 2039  Q 2572 2116 2134 2116  L 1075 2116  L 1075 541  z "
               transform="scale(0.015625)" />
            <path
               id="ArialMT-69"
               d="M 425 3934  L 425 4581  L 988 4581  L 988 3934  L 425 3934  z M 425 0  L 425 3319  L 988 3319  L 988 0  L 425 0  z "
               transform="scale(0.015625)" />
            <path
               id="ArialMT-6e"
               d="M 422 0  L 422 3319  L 928 3319  L 928 2847  Q 1294 3394 1984 3394  Q 2284 3394 2536 3286  Q 2788 3178 2913 3003  Q 3038 2828 3088 2588  Q 3119 2431 3119 2041  L 3119 0  L 2556 0  L 2556 2019  Q 2556 2363 2490 2533  Q 2425 2703 2258 2804  Q 2091 2906 1866 2906  Q 1506 2906 1245 2678  Q 984 2450 984 1813  L 984 0  L 422 0  z "
               transform="scale(0.015625)" />
            <path
               id="ArialMT-73"
               d="M 197 991  L 753 1078  Q 800 744 1014 566  Q 1228 388 1613 388  Q 2000 388 2187 545  Q 2375 703 2375 916  Q 2375 1106 2209 1216  Q 2094 1291 1634 1406  Q 1016 1563 777 1677  Q 538 1791 414 1992  Q 291 2194 291 2438  Q 291 2659 392 2848  Q 494 3038 669 3163  Q 800 3259 1026 3326  Q 1253 3394 1513 3394  Q 1903 3394 2198 3281  Q 2494 3169 2634 2976  Q 2775 2784 2828 2463  L 2278 2388  Q 2241 2644 2061 2787  Q 1881 2931 1553 2931  Q 1166 2931 1000 2803  Q 834 2675 834 2503  Q 834 2394 903 2306  Q 972 2216 1119 2156  Q 1203 2125 1616 2013  Q 2213 1853 2448 1751  Q 2684 1650 2818 1456  Q 2953 1263 2953 975  Q 2953 694 2789 445  Q 2625 197 2315 61  Q 2006 -75 1616 -75  Q 969 -75 630 194  Q 291 463 197 991  z "
               transform="scale(0.015625)" />
          </defs>
          <use
             xlink:href="#ArialMT-6d"
             id="use44" />
          <use
             xlink:href="#ArialMT-61"
             x="83.300781"
             id="use45" />
          <use
             xlink:href="#ArialMT-78"
             x="138.916016"
             id="use46" />
          <use
             xlink:href="#ArialMT-42"
             x="188.916016"
             id="use47" />
          <use
             xlink:href="#ArialMT-69"
             x="255.615234"
             id="use48" />
          <use
             xlink:href="#ArialMT-6e"
             x="277.832031"
             id="use49" />
          <use
             xlink:href="#ArialMT-73"
             x="333.447266"
             id="use50" />
        </g>
      </g>
    </g>
    <g
       id="axes_3">
      <g
         id="patch_12">
        <path
           d="M 57.6 307.584  L 414.72 307.584  L 414.72 229.315765  L 57.6 229.315765  z "
           style="fill: #ffffff"
           id="path50" />
      </g>
      <g
         id="matplotlib.axis_3">
        <g
           id="xtick_5">
          <g
             id="line2d_7">
            <g
               id="g51">
              <use
                 xlink:href="#m4f6a51facf"
                 x="57.6"
                 y="268.449882"
                 style="stroke: #000000; stroke-width: 0.8"
                 id="use51" />
            </g>
          </g>
          <g
             id="text_13">
            <!-- 0 -->
            <g
               transform="translate(54.41875 283.04832)scale(0.1 -0.1)"
               id="g52">
              <use
                 xlink:href="#DejaVuSans-30"
                 id="use52" />
            </g>
          </g>
        </g>
        <g
           id="xtick_6">
          <g
             id="line2d_8">
            <g
               id="g53">
              <use
                 xlink:href="#m4f6a51facf"
                 x="414.72"
                 y="268.449882"
                 style="stroke: #000000; stroke-width: 0.8"
                 id="use53" />
            </g>
          </g>
          <g
             id="text_14">
            <!-- 30 -->
            <g
               transform="translate(408.3575 283.04832)scale(0.1 -0.1)"
               id="g55">
              <use
                 xlink:href="#DejaVuSans-33"
                 id="use54" />
              <use
                 xlink:href="#DejaVuSans-30"
                 x="63.623047"
                 id="use55" />
            </g>
          </g>
        </g>
      </g>
      <g
         id="line2d_9">
        <g
           clip-path="url(#p9f4de817b8)"
           id="g58">
          <use
             xlink:href="#m4e34d712ee"
             x="117.12"
             y="268.449882"
             style="fill: #ff0000; stroke: #ff0000"
             id="use56" />
          <use
             xlink:href="#m4e34d712ee"
             x="236.16"
             y="268.449882"
             style="fill: #ff0000; stroke: #ff0000"
             id="use57" />
          <use
             xlink:href="#m4e34d712ee"
             x="355.2"
             y="268.449882"
             style="fill: #ff0000; stroke: #ff0000"
             id="use58" />
        </g>
      </g>
      <g
         id="patch_13">
        <path
           d="M 57.6 307.584  L 57.6 229.315765  "
           style="fill: none"
           id="path58" />
      </g>
      <g
         id="patch_14">
        <path
           d="M 414.72 307.584  L 414.72 229.315765  "
           style="fill: none"
           id="path59" />
      </g>
      <g
         id="patch_15">
        <path
           d="M 57.6 268.449882  L 414.72 268.449882  "
           style="fill: none; stroke: #000000; stroke-width: 0.8; stroke-linejoin: miter; stroke-linecap: square"
           id="path60" />
      </g>
      <g
         id="patch_16">
        <path
           d="M 57.6 229.315765  L 414.72 229.315765  "
           style="fill: none"
           id="path61" />
      </g>
      <g
         id="text_15">
        <!-- 5 -->
        <g
           style="fill: #ff0000"
           transform="translate(114.144 282.538165)scale(0.1 -0.1)"
           id="g61">
          <use
             xlink:href="#DejaVuSans-35"
             id="use61" />
        </g>
      </g>
      <g
         id="text_16">
        <!-- 15 -->
        <g
           style="fill: #ff0000"
           transform="translate(230.208 282.538165)scale(0.1 -0.1)"
           id="g63">
          <use
             xlink:href="#DejaVuSans-31"
             id="use62" />
          <use
             xlink:href="#DejaVuSans-35"
             x="63.623047"
             id="use63" />
        </g>
      </g>
      <g
         id="text_17">
        <!-- 25 -->
        <g
           style="fill: #ff0000"
           transform="translate(349.248 282.538165)scale(0.1 -0.1)"
           id="g65">
          <use
             xlink:href="#DejaVuSans-32"
             id="use64" />
          <use
             xlink:href="#DejaVuSans-35"
             x="63.623047"
             id="use65" />
        </g>
      </g>
      <g
         id="text_18">
        <!-- maxIter -->
        <g
           transform="translate(57.6 223.315765)scale(0.1 -0.1)"
           id="g72">
          <defs
             id="defs65">
            <path
               id="ArialMT-49"
               d="M 597 0  L 597 4581  L 1203 4581  L 1203 0  L 597 0  z "
               transform="scale(0.015625)" />
            <path
               id="ArialMT-72"
               d="M 416 0  L 416 3319  L 922 3319  L 922 2816  Q 1116 3169 1280 3281  Q 1444 3394 1641 3394  Q 1925 3394 2219 3213  L 2025 2691  Q 1819 2813 1613 2813  Q 1428 2813 1281 2702  Q 1134 2591 1072 2394  Q 978 2094 978 1738  L 978 0  L 416 0  z "
               transform="scale(0.015625)" />
          </defs>
          <use
             xlink:href="#ArialMT-6d"
             id="use66" />
          <use
             xlink:href="#ArialMT-61"
             x="83.300781"
             id="use67" />
          <use
             xlink:href="#ArialMT-78"
             x="138.916016"
             id="use68" />
          <use
             xlink:href="#ArialMT-49"
             x="188.916016"
             id="use69" />
          <use
             xlink:href="#ArialMT-74"
             x="216.699219"
             id="use70" />
          <use
             xlink:href="#ArialMT-65"
             x="244.482422"
             id="use71" />
          <use
             xlink:href="#ArialMT-72"
             x="300.097656"
             id="use72" />
        </g>
      </g>
    </g>
    <g
       id="text_19">
      <!-- Gradient-boosted Trees -->
      <g
         transform="translate(156.863906 16.932937)scale(0.14 -0.14)"
         id="g94">
        <defs
           id="defs72">
          <path
             id="ArialMT-47"
             d="M 2638 1797  L 2638 2334  L 4578 2338  L 4578 638  Q 4131 281 3656 101  Q 3181 -78 2681 -78  Q 2006 -78 1454 211  Q 903 500 622 1047  Q 341 1594 341 2269  Q 341 2938 620 3517  Q 900 4097 1425 4378  Q 1950 4659 2634 4659  Q 3131 4659 3532 4498  Q 3934 4338 4162 4050  Q 4391 3763 4509 3300  L 3963 3150  Q 3859 3500 3706 3700  Q 3553 3900 3268 4020  Q 2984 4141 2638 4141  Q 2222 4141 1919 4014  Q 1616 3888 1430 3681  Q 1244 3475 1141 3228  Q 966 2803 966 2306  Q 966 1694 1177 1281  Q 1388 869 1791 669  Q 2194 469 2647 469  Q 3041 469 3416 620  Q 3791 772 3984 944  L 3984 1797  L 2638 1797  z "
             transform="scale(0.015625)" />
          <path
             id="ArialMT-64"
             d="M 2575 0  L 2575 419  Q 2259 -75 1647 -75  Q 1250 -75 917 144  Q 584 363 401 755  Q 219 1147 219 1656  Q 219 2153 384 2558  Q 550 2963 881 3178  Q 1213 3394 1622 3394  Q 1922 3394 2156 3267  Q 2391 3141 2538 2938  L 2538 4581  L 3097 4581  L 3097 0  L 2575 0  z M 797 1656  Q 797 1019 1065 703  Q 1334 388 1700 388  Q 2069 388 2326 689  Q 2584 991 2584 1609  Q 2584 2291 2321 2609  Q 2059 2928 1675 2928  Q 1300 2928 1048 2622  Q 797 2316 797 1656  z "
             transform="scale(0.015625)" />
          <path
             id="ArialMT-2d"
             d="M 203 1375  L 203 1941  L 1931 1941  L 1931 1375  L 203 1375  z "
             transform="scale(0.015625)" />
          <path
             id="ArialMT-62"
             d="M 941 0  L 419 0  L 419 4581  L 981 4581  L 981 2947  Q 1338 3394 1891 3394  Q 2197 3394 2470 3270  Q 2744 3147 2920 2923  Q 3097 2700 3197 2384  Q 3297 2069 3297 1709  Q 3297 856 2875 390  Q 2453 -75 1863 -75  Q 1275 -75 941 416  L 941 0  z M 934 1684  Q 934 1088 1097 822  Q 1363 388 1816 388  Q 2184 388 2453 708  Q 2722 1028 2722 1663  Q 2722 2313 2464 2622  Q 2206 2931 1841 2931  Q 1472 2931 1203 2611  Q 934 2291 934 1684  z "
             transform="scale(0.015625)" />
          <path
             id="ArialMT-6f"
             d="M 213 1659  Q 213 2581 725 3025  Q 1153 3394 1769 3394  Q 2453 3394 2887 2945  Q 3322 2497 3322 1706  Q 3322 1066 3130 698  Q 2938 331 2570 128  Q 2203 -75 1769 -75  Q 1072 -75 642 372  Q 213 819 213 1659  z M 791 1659  Q 791 1022 1069 705  Q 1347 388 1769 388  Q 2188 388 2466 706  Q 2744 1025 2744 1678  Q 2744 2294 2464 2611  Q 2184 2928 1769 2928  Q 1347 2928 1069 2612  Q 791 2297 791 1659  z "
             transform="scale(0.015625)" />
          <path
             id="ArialMT-20"
             transform="scale(0.015625)" />
          <path
             id="ArialMT-54"
             d="M 1659 0  L 1659 4041  L 150 4041  L 150 4581  L 3781 4581  L 3781 4041  L 2266 4041  L 2266 0  L 1659 0  z "
             transform="scale(0.015625)" />
        </defs>
        <use
           xlink:href="#ArialMT-47"
           id="use73" />
        <use
           xlink:href="#ArialMT-72"
           x="77.783203"
           id="use74" />
        <use
           xlink:href="#ArialMT-61"
           x="111.083984"
           id="use75" />
        <use
           xlink:href="#ArialMT-64"
           x="166.699219"
           id="use76" />
        <use
           xlink:href="#ArialMT-69"
           x="222.314453"
           id="use77" />
        <use
           xlink:href="#ArialMT-65"
           x="244.53125"
           id="use78" />
        <use
           xlink:href="#ArialMT-6e"
           x="300.146484"
           id="use79" />
        <use
           xlink:href="#ArialMT-74"
           x="355.761719"
           id="use80" />
        <use
           xlink:href="#ArialMT-2d"
           x="383.544922"
           id="use81" />
        <use
           xlink:href="#ArialMT-62"
           x="416.845703"
           id="use82" />
        <use
           xlink:href="#ArialMT-6f"
           x="472.460938"
           id="use83" />
        <use
           xlink:href="#ArialMT-6f"
           x="528.076172"
           id="use84" />
        <use
           xlink:href="#ArialMT-73"
           x="583.691406"
           id="use85" />
        <use
           xlink:href="#ArialMT-74"
           x="633.691406"
           id="use86" />
        <use
           xlink:href="#ArialMT-65"
           x="661.474609"
           id="use87" />
        <use
           xlink:href="#ArialMT-64"
           x="717.089844"
           id="use88" />
        <use
           xlink:href="#ArialMT-20"
           x="772.705078"
           id="use89" />
        <use
           xlink:href="#ArialMT-54"
           x="798.738281"
           id="use90" />
        <use
           xlink:href="#ArialMT-72"
           x="856.072266"
           id="use91" />
        <use
           xlink:href="#ArialMT-65"
           x="889.373047"
           id="use92" />
        <use
           xlink:href="#ArialMT-65"
           x="944.988281"
           id="use93" />
        <use
           xlink:href="#ArialMT-73"
           x="1000.603516"
           id="use94" />
      </g>
    </g>
  </g>
  <defs
     id="defs96">
    <clipPath
       id="p64418d3b89">
      <rect
         x="57.6"
         y="41.472"
         width="357.12"
         height="78.268235"
         id="rect94" />
    </clipPath>
    <clipPath
       id="pe850f5d3cf">
      <rect
         x="57.6"
         y="135.393882"
         width="357.12"
         height="78.268235"
         id="rect95" />
    </clipPath>
    <clipPath
       id="p9f4de817b8">
      <rect
         x="57.6"
         y="229.315765"
         width="357.12"
         height="78.268235"
         id="rect96" />
    </clipPath>
  </defs>
  <circle
     style="fill:none;fill-opacity:1;stroke:#25de1e;stroke-width:1.45;stroke-dasharray:none;stroke-opacity:1"
     id="path96"
     cx="237.00111"
     cy="80.967896"
     r="29.331364" />
  <circle
     style="fill:none;fill-opacity:1;stroke:#25de1e;stroke-width:1.45;stroke-linecap:butt;stroke-linejoin:round;stroke-dasharray:none;stroke-opacity:1"
     id="path96-3"
     cx="201.16707"
     cy="175.08035"
     r="29.331364" />
  <circle
     style="fill:none;fill-opacity:1;stroke:#25de1e;stroke-width:1.45;stroke-linecap:butt;stroke-linejoin:round;stroke-dasharray:none;stroke-opacity:1"
     id="path96-3-9"
     cx="236.33072"
     cy="269.13092"
     r="29.331364" />
</svg>
